Eastern Promises (2007)

Director: David Cronenberg

Eastern Promises is a 2007 gangster thriller film directed by David Cronenberg, from a screenplay written by Steven Knight. The film tells of a British midwife's interactions with the Russian Mafia in London and stars Viggo Mortensen, Naomi Watts and Vincent Cassel. Principal photography began November 2006, in locations in and around London. The film has been noted for its plot twist, the subject of sex trafficking, and for its violence and realistic depiction of Russian career criminals, which includes detailed portrayal of the tattoos commonly worn by them.

Eastern Promises received positive critical reception, appearing on several US critics' "top ten films" lists for 2007. The film has won several awards, including the Audience Prize for best film at the Toronto International Film Festival and the Best Actor award for Mortensen at the British Independent Film Awards. The film received twelve Genie Award nominations and three Golden Globe Award nominations. Mortensen was nominated for the Academy Award for Best Actor.

Shooting began in November 2006, and various scenes were filmed in St John Street, Farringdon, London. Filming also took place in Broadway Market, Hackney and in Brompton Cemetery in the London Borough of Kensington & Chelsea.

The "Trans-Siberian Restaurant" is located in The Farmiloe Building, 34 St John Street, next to Smithfield Market. This is the 6th most popular film and TV location in London, having also been used for Spooks, Penelope, and Batman Begins.

The entrance to the "Ankara Social Club" of the film is actually the front door of a residential flat. The Broadway Market hair dresser known as "Broadway Gents Hairstylist" was changed to "Azim's Hair Salon", where in the film one of the Russians is murdered. The owner Mr. Ismail Yesiloglu decided to keep most of the shop front after filming. In the original script, the name was "Ozim's Hair Salon", but it was later changed to "Azim's" as there is no such name as Ozim in Turkish.

The "Trafalgar Hospital" is actually the Middlesex Hospital, a hospital in the Fitzrovia area of London, which closed to patients in December 2005. The building in central London, which was knocked down in 2008, had the inscription 'Trafalgar Hospital', matching the style and apparent age of the old Middlesex Hospital, inserted into the legend above the main door.

The fight scene in the Turkish Baths is filmed at the Ironmonger Row Baths in Islington.

Media Info:
General
Complete name                    : J:\Seeding\Eastern Promises (2007)[DVDRip][big_dad_e™]\Eastern Promises (2007)[DVDRip][big_dad_e™].AVI
Format                           : AVI
Format/Info                      : Audio Video Interleave
File size                        : 1.28 GiB
Duration                         : 1h 40mn
Overall bit rate                 : 1 827 Kbps

Video
ID                               : 0
Format                           : MPEG-4 Visual
Format profile                   : Simple@L3
Format settings, BVOP            : No
Format settings, QPel            : No
Format settings, GMC             : No warppoints
Format settings, Matrix          : Default (H.263)
Codec ID                         : XVID
Codec ID/Hint                    : XviD
Duration                         : 1h 40mn
Bit rate                         : 1 494 Kbps
Width                            : 712 pixels
Height                           : 460 pixels
Display aspect ratio             : 16:9
Frame rate                       : 23.976 fps
Color space                      : YUV
Chroma subsampling               : 4:2:0
Bit depth                        : 8 bits
Scan type                        : Progressive
Bits/(Pixel*Frame)               : 0.190
Stream size                      : 1.05 GiB (82%)
Writing library                  : XviD 1.1.2 (UTC 2006-11-01)

Audio
ID                               : 1
Format                           : MPEG Audio
Format version                   : Version 1
Format profile                   : Layer 3
Mode                             : Joint stereo
Codec ID                         : 55
Codec ID/Hint                    : MP3
Duration                         : 1h 40mn
Bit rate mode                    : Constant
Bit rate                         : 320 Kbps
Channel(s)                       : 2 channels
Sampling rate                    : 48.0 KHz
Stream size                      : 230 MiB (18%)
Alignment                        : Split accross interleaves
Interleave, duration             : 24 ms (0.58 video frame)
Interleave, preload duration     : 47 ms
Writing library                  : LAME3.98

File Scan:
Malwarebytes' Anti-Malware 1.50.1.1100
www.malwarebytes.org

Database version: 5574

1/22/2011 7:50:04 PM
mbam-log-2011-01-22 (19-50-04).txt

Scan type: Quick scan
Objects scanned: 5
Time elapsed: 19 second(s)

Memory Processes Infected: 0
Memory Modules Infected: 0
Registry Keys Infected: 0
Registry Values Infected: 0
Registry Data Items Infected: 0
Folders Infected: 0
Files Infected: 0

Memory Processes Infected:
(No malicious items detected)

Memory Modules Infected:
(No malicious items detected)

Registry Keys Infected:
(No malicious items detected)

Registry Values Infected:
(No malicious items detected)

Registry Data Items Infected:
(No malicious items detected)

Folders Infected:
(No malicious items detected)

Files Infected:
(No malicious items detected)

When using TPB please read these important notes:
  
01- Anti-malware apps may warn about keygens, patches, cracks, etc., because of 
    their capabilities, (generating codes, etc.). Sometimes they're added to 
    the virus/spyware database and will be detected as malware. If you don't trust
    the keygens, patches, cracks, etc., don't use them. 
    
02- Before running .exe-files, keygens, patches, cracks, etc., always check first 
    if they can be unpacked. Often some third party added a virus to the 
    original file, repacked it and uploaded it again.

03- Letting anti-malware apps send scan results to their companies can cause
    keygens, patches, cracks, etc., to be added to their virus-database.

04- Firewalls which are set to automatically determine connections will allow 
    apps & malware!. Avoid this by manually configuring your firewall.

05- Usually (new) torrents with many downloads and seeders in a brief period is
    suspicious! Torrents with the Skull & Crossbones icon are trusted.

06- Some people use multiple accounts and post fake comments 
    and/or files trying to spread confusion. They seldom seriously
    comment or have any torrents, or a just a few to look passable.

07- Clicking on unknown links can cause malware to be installed on your machine.
  
08- In general often there are more fake and negative comments than reliable and
    positive comments.

09- In some countries uploading/downloading copyright protected material is 
    forbidden, but showing some appreciation to reliable up-loaders is not.

10- Posting fake and negative comments or fake/infected uploads on TPB can result
    in getting banned from TPB!

Requests?  Find me on SuprBay. http://forum.suprbay.org/member.php?action=profile&uid=91870
 

For reporting bad or suspicious torrents:  
http://forum.suprbay.org/forumdisplay.php?fid=29

For more of my torrents: 
https://thepiratebay.org/user/big_dad_e/  (Secured)

All torrents scanned with:
Norton Anti-virus
Malwarebytes' Anti-malware
 
http://www.pirate-party.us/

ALWAYS SEED & THANKS SEEDERS!